<svg height="20" viewBox="0 0 51 60" width="20" xmlns="http://www.w3.org/2000/svg"><g id="001---Down-Arrow" fill="none"><g id="Icons" transform="translate(1)"><path id="Shape" d="m47.71 42.74-8.71-3.76.01-29.3c.0017371-.20115955-.0613808-.39752643-.18-.56-.1038886-.16049445-.2537389-.28595047-.43-.36l-17.95-7.68c-.2804926-.122406-.6019228-.10762759-.87.04-1.49.83-6.46 3.59-8.07 4.48-.1524596.08243226-.2775677.20754041-.36.36-.1003889.15465571-.1525951.33563738-.15.52l-.01 19.9v.53l-1.12-.46c-.28288311-.1142872-.60207264-.0959429-.87.05l-7.6 4.23c-.27975086.1495829-.46979101.4253274-.51.74v.01c-.03016297.2476667.03410685.4976049.18.7l18.8 26.4c.2887803.4093709.8359167.5418805 1.28.31l19.42-10.34 7.23-4.01c.3320298-.1877437.529647-.5468224.5105992-.92778-.0190479-.3809575-.2514978-.7185329-.6005992-.87222z" fill="#ffdc00"/><g fill="#ff9801"><path id="Shape" d="m10.99 26.91v7.41c.0011786.3379353-.1683999.6536053-.450816.839193s-.63946019.215984-.949184.080807l-8.7-3.76v-.01c.04020899-.3146726.23024914-.5904171.51-.74l7.6-4.23c.26792736-.1459429.58711689-.1642872.87-.05z"/><path id="Shape" d="m38.83 9.12-8.82 4.9-.17-.07-18.69-7.99c.0824323-.15245959.2075404-.27756774.36-.36 1.06-.59 3.57-1.98 5.59-3.1 1.05-.58 1.97-1.09 2.48-1.38.2680772-.14762759.5895074-.162406.87-.04l17.95 7.68c.1762611.07404953.3261114.19950555.43.36z"/><path id="Shape" d="m39.01 9.68-.01 29.3-8.83 4.9c-.0291861-.0399172-.0527404-.0836608-.07-.13-.0682401-.1329095-.102591-.2806182-.1-.43l.01-29.3 5.9-3.27v-.01l2.92-1.62c.1186192.16247357.1817371.35884045.18.56z"/></g><path id="Shape" d="m38.83 9.12-2.82 1.565-.01 28.295-6 3.329v1.011c-.002591.1493818.0317599.2970905.1.43.0172596.0463392.0408139.0900828.07.13l8.83-4.9.01-29.3c.0017371-.20115955-.0613808-.39752643-.18-.56z" fill="#f57c00"/><path id="Shape" d="m47.8 44.54-2.53 1.41-4.7 2.6-9.97-4.31c-.0802835-.0347236-.154542-.081979-.22-.14-.0821975-.0606353-.1532513-.1350726-.21-.22l8.83-4.9 8.71 3.76c.3491014.1536871.5815513.4912625.6005992.87222.0190478.3809576-.1785694.7400363-.5105992.92778z" fill="#ff9801"/></g><g id="Layer_10" fill="#000" transform="translate(0 -1)"><path id="Shape" d="m20.054 60.157c.5813997.8174439 1.6768717 1.0804255 2.566.616l26.674-14.364c.6614893-.3752948 1.0541837-1.0920986 1.0143775-1.8515917-.0398061-.7594931-.5052807-1.431319-1.2023775-1.7354083l-8.1-3.5v-28.642c.0039105-.80159246-.4739851-1.52711057-1.212-1.84l-17.95-7.679c-.5646992-.2459621-1.2117962-.21453168-1.75.085 0 0-7.122 3.954-8.072 4.481-.6311093.35911591-1.0234756 1.02690039-1.03 1.753v18.973c-.4967311-.1325147-1.02529851-.0706458-1.478.173l-7.6 4.228c-.49978261.2737118-.85833622.7484467-.98490246 1.304038-.12656624.5555914-.00901365 1.1387855.32290246 1.601962zm1.631-1.157-17.369-24.383 5.872 2.539c.6201591.2709822 1.335101.2113367 1.901785-.1586604.5666841-.3699971.908863-1.0005628.910215-1.6773396v-26.911l17.009 7.269v28.642c-.0017836.4008835.1166468.7930974.34 1.126.453.659.068.371 8.921 4.2zm17.32-19.608-7 3.882v-27.667l7-3.886zm9.31 5.274-6.8 3.771-8.254-3.573 6.8-3.77zm-27.258-41.666 16.679 7.137-6.789 3.769-16.691-7.133zm-10.567 25.375.5.2v6.742l-7.307-3.16z"/><path id="Shape" d="m16 12c-.5522847 0-1 .4477153-1 1v14c0 .5522847.4477153 1 1 1s1-.4477153 1-1v-14c0-.5522847-.4477153-1-1-1z"/><path id="Shape" d="m16 31c-.5522847 0-1 .4477153-1 1v3c0 .5522847.4477153 1 1 1s1-.4477153 1-1v-3c0-.5522847-.4477153-1-1-1z"/></g></g></svg>